# xmcd
#
# Track frame offsets:
#	151
#	17229
#	28361
#	41452
#	54102
#	66397
#	83865
#	94525
#	109460
#	122433
#
# Disc length: 1783 seconds
#
# Revision: 0
# Processed by: cddbd v1.5.1PL2 Copyright (c) Steve Scherf et al.
# Submitted via: EasyCDDAExtractor 9.1.3.1
#
DISCID=7f06f50a
DTITLE=Rita Pavone - Cuore
DYEAR=1900
DGENRE=
TTITLE0=Cuore
TTITLE1=Che m'importa del mondo
TTITLE2=Solo tu
TTITLE3=Come te non c'è nessuno
TTITLE4=Non è facile avere 18 anni
TTITLE5=Dove non so
TTITLE6=Alla mia età
TTITLE7=Sei la mia mamma
TTITLE8=Tu, cuore mio
TTITLE9=Fortissimo
EXTD=
EXTT0=
EXTT1=
EXTT2=
EXTT3=
EXTT4=
EXTT5=
EXTT6=
EXTT7=
EXTT8=
EXTT9=
PLAYORDER=
